# xmcd CD database file
#
# Track frame offsets:
#	150
#	16858
#	33538
#	46556
#	68840
#	82492
#	103567
#	122263
#	138331
#	156564
#
# Disc length: 2301 seconds
#
# Revision: 0
# Processed by: cddbd v1.5.2PL0 Copyright (c) Steve Scherf et al.
# Submitted via: NeoAudio 9.9.9
#
DISCID=7d08fb0a
DTITLE=Oscar D'Leon - Colleccion De Oro CD1
DYEAR=2004
DGENRE=Salsa
TTITLE0=Es decir que eres linda -que linda-
TTITLE1=Bajate de esa nube
TTITLE2=Cruel indiferencia
TTITLE3=El derecho de nacer
TTITLE4=Sun sun babae
TTITLE5=Ardiente deseo
TTITLE6=Dulce desengaño
TTITLE7=Cuando llegara
TTITLE8=Esa Mujer
TTITLE9=Que pena me da
EXTD=YEAR: 2004
EXTT0=
EXTT1=
EXTT2=
EXTT3=
EXTT4=
EXTT5=
EXTT6=
EXTT7=
EXTT8=
EXTT9=
PLAYORDER=
